<svg xmlns="http://www.w3.org/2000/svg" width="880" height="210" viewBox="0 0 880 210">
  <title>Javad — MCP servers and APIs for the Persian web. Tehran, Iran.</title>
  <style>
    text{font-family:'Segoe UI',Ubuntu,'Helvetica Neue',Arial,sans-serif}
    .hdr{font-size:15px;font-weight:700;letter-spacing:3.2px;fill:#2A2520}
    .sub{font-size:10.5px;fill:#5C544C}
    .coord{font-size:9px;fill:#8A8078;letter-spacing:1.4px}
    .key{font-size:8px;fill:#8A8078;letter-spacing:.7px}
    .nm{font-size:12.5px;font-weight:600;fill:#2A2520}
    .ds{font-size:9px;fill:#8A8078}
    .st{font-size:12.5px;font-weight:700;fill:#C2410C;text-anchor:end}
    .trk{fill:#EFE8DA}
    .fil{fill:#C2410C}
    .grid{stroke:#EFE8DA;stroke-width:.6}
    .cont{fill:none;stroke:#E9E0CF;stroke-width:1}
    .route{fill:none;stroke:#C3B8A5;stroke-width:1;stroke-dasharray:3 5}
  </style>

  <rect x="0" y="0" width="880" height="210" fill="#FAF8F3"/>

  <g>
    <line class="grid" x1="110" y1="46" x2="110" y2="210"/>
    <line class="grid" x1="330" y1="46" x2="330" y2="210"/>
    <line class="grid" x1="550" y1="46" x2="550" y2="210"/>
    <line class="grid" x1="770" y1="46" x2="770" y2="210"/>
    <line class="grid" x1="0" y1="110" x2="880" y2="110"/>
    <line class="grid" x1="0" y1="168" x2="880" y2="168"/>
    <line class="grid" x1="0" y1="199" x2="880" y2="199"/>
    <path class="cont" d="M-20 60 Q180 30 420 62 T900 48"/>
    <path class="cont" d="M-20 132 Q200 100 440 134 T900 116"/>
    <path class="cont" d="M-20 200 Q240 168 500 202 T900 182"/>
    <path class="cont" d="M150 -10 Q118 100 156 220"/>
    <path class="cont" d="M700 -10 Q744 100 694 220"/>
  </g>

  <g class="route">
    <path d="M216 78H240"/>
    <path d="M428 78H452"/>
    <path d="M640 78H664"/>
    <path d="M122 104V124"/>
    <path d="M758 104V124"/>
    <path d="M334 104C380 120 500 108 556 124"/>
    <path d="M546 104C500 120 380 108 334 124"/>
    <path d="M210 150H246"/>
    <path d="M422 150H458"/>
    <path d="M654 150H670"/>
  </g>

  <g>
    <rect x="28" y="52" width="188" height="52" rx="7" fill="#FDFBF6" stroke="#E0D6C3"/>
    <text class="nm" x="12" y="18">digikala-mcp</text>
    <text class="ds" x="12" y="31">marketplace · 16 tools</text>
    <rect class="trk" x="12" y="38" width="104" height="5" rx="2.5"/>
    <rect class="fil" x="12" y="38" width="104" height="5" rx="2.5"/>
    <text class="st" x="176" y="43">112</text>
  </g>
  <g transform="translate(240,52)">
    <rect x="0" y="0" width="188" height="52" rx="7" fill="#FDFBF6" stroke="#E0D6C3"/>
    <text class="nm" x="12" y="18">divar-mcp</text>
    <text class="ds" x="12" y="31">classifieds · 7 tools</text>
    <rect class="trk" x="12" y="38" width="104" height="5" rx="2.5"/>
    <rect class="fil" x="12" y="38" width="74" height="5" rx="2.5"/>
    <text class="st" x="176" y="43">57</text>
  </g>
  <g transform="translate(452,52)">
    <rect x="0" y="0" width="188" height="52" rx="7" fill="#FDFBF6" stroke="#E0D6C3"/>
    <text class="nm" x="12" y="18">orca-mcp</text>
    <text class="ds" x="12" y="31">movies &amp; TV · 21 tools</text>
    <rect class="trk" x="12" y="38" width="104" height="5" rx="2.5"/>
    <rect class="fil" x="12" y="38" width="24" height="5" rx="2.5"/>
    <text class="st" x="176" y="43">6</text>
  </g>
  <g transform="translate(664,52)">
    <rect x="0" y="0" width="188" height="52" rx="7" fill="#FDFBF6" stroke="#E0D6C3"/>
    <text class="nm" x="12" y="18">orca-movies</text>
    <text class="ds" x="12" y="31">bilingual FA / EN bot</text>
    <rect class="trk" x="12" y="38" width="104" height="5" rx="2.5"/>
    <rect class="fil" x="12" y="38" width="24" height="5" rx="2.5"/>
    <text class="st" x="176" y="43">6</text>
  </g>

  <g transform="translate(34,124)">
    <rect x="0" y="0" width="176" height="52" rx="7" fill="#FDFBF6" stroke="#E0D6C3"/>
    <text class="nm" x="12" y="18">orca-save</text>
    <text class="ds" x="12" y="31">media downloader</text>
    <rect class="trk" x="12" y="38" width="96" height="5" rx="2.5"/>
    <rect class="fil" x="12" y="38" width="22" height="5" rx="2.5"/>
    <text class="st" x="164" y="43">5</text>
  </g>
  <g transform="translate(246,124)">
    <rect x="0" y="0" width="176" height="52" rx="7" fill="#FDFBF6" stroke="#E0D6C3"/>
    <text class="nm" x="12" y="18">fa-text-utils</text>
    <text class="ds" x="12" y="31">Persian text helpers</text>
    <rect class="trk" x="12" y="38" width="96" height="5" rx="2.5"/>
    <rect class="fil" x="12" y="38" width="22" height="5" rx="2.5"/>
    <text class="st" x="164" y="43">5</text>
  </g>
  <g transform="translate(458,124)">
    <rect x="0" y="0" width="196" height="52" rx="7" fill="#FDFBF6" stroke="#E0D6C3"/>
    <text class="nm" x="12" y="18">imdb-top250-api</text>
    <text class="ds" x="12" y="31">IMDb Top 250</text>
    <rect class="trk" x="12" y="38" width="104" height="5" rx="2.5"/>
    <rect class="fil" x="12" y="38" width="20" height="5" rx="2.5"/>
    <text class="st" x="184" y="43">4</text>
  </g>
  <g transform="translate(670,124)">
    <rect x="0" y="0" width="176" height="52" rx="7" fill="#FDFBF6" stroke="#E0D6C3"/>
    <text class="nm" x="12" y="18">letterboxd-top500-api</text>
    <text class="ds" x="12" y="31">Letterboxd Top 500</text>
    <rect class="trk" x="12" y="38" width="96" height="5" rx="2.5"/>
    <rect class="fil" x="12" y="38" width="20" height="5" rx="2.5"/>
    <text class="st" x="164" y="43">4</text>
  </g>

  <g>
    <rect x="0" y="0" width="880" height="46" fill="#F2ECE0"/>
    <line x1="0" y1="46" x2="880" y2="46" stroke="#E2D8C5" stroke-width="1"/>

    <text class="hdr" x="24" y="21">JAVAD</text>
    <text class="sub" x="100" y="21">MCP servers &amp; APIs for the Persian web</text>
    <text class="coord" x="856" y="21" text-anchor="end">TEHRAN · IRAN</text>

    <rect x="24" y="31" width="14" height="6" rx="1" fill="#C2410C"/>
    <text class="key" x="44" y="37">STAR WEIGHT</text>
    <rect x="124" y="31" width="14" height="6" rx="1" fill="#FDFBF6" stroke="#D8CDBA"/>
    <text class="key" x="144" y="37">PUBLIC REPO</text>
    <line x1="246" y1="34" x2="266" y2="34" stroke="#C3B8A5" stroke-width="1" stroke-dasharray="3 4"/>
    <text class="key" x="272" y="37">ROUTE</text>
    <text class="coord" x="856" y="37" text-anchor="end">35.69°N 51.39°E · SCALE 1:2</text>
  </g>

  <g>
    <text class="coord" x="60" y="184" text-anchor="middle">N</text>
    <path d="M60 187 L65 201 L60 197.5 L55 201 Z" fill="#2A2520"/>
    <text class="key" x="600" y="205" text-anchor="end">BAR LENGTH = √ STARS</text>
    <rect x="612" y="187" width="40" height="6" rx="1" fill="#C2410C"/>
    <text class="key" x="658" y="193">112</text>
    <rect x="612" y="199" width="9" height="6" rx="1" fill="#C2410C"/>
    <text class="key" x="627" y="205">6</text>
    <text class="key" x="856" y="196" text-anchor="end">8 PROJECTS MAPPED · 202 ★ TOTAL</text>
  </g>
</svg>
